<?xml version="1.0" encoding="UTF-8"?>
<svg width="617px" height="422px" viewBox="0 0 617 422" version="1.1" xmlns="http://www.w3.org/2000/svg" xmlns:xlink="http://www.w3.org/1999/xlink">
    <!-- Generator: Sketch 64 (93537) - https://sketch.com -->
    <title>桌面端 HD</title>
    <desc>Created with Sketch.</desc>
    <defs>
        <rect id="path-1" x="133" y="379" width="416" height="92"></rect>
        <mask id="mask-2" maskContentUnits="userSpaceOnUse" maskUnits="objectBoundingBox" x="0" y="0" width="416" height="92" fill="white">
            <use xlink:href="#path-1"></use>
        </mask>
        <rect id="path-3" x="110" y="167" width="462" height="319"></rect>
        <mask id="mask-4" maskContentUnits="userSpaceOnUse" maskUnits="objectBoundingBox" x="0" y="0" width="462" height="319" fill="white">
            <use xlink:href="#path-3"></use>
        </mask>
    </defs>
    <g id="云防火墙文档" stroke="none" stroke-width="1" fill="none" fill-rule="evenodd">
        <g id="桌面端-HD" transform="translate(-91.000000, -79.000000)">
            <g id="编组-2" transform="translate(362.000000, 193.000000)">
                <g id="编组" opacity="0.6" transform="translate(1.000000, 1.000000)" fill="#BBBBBB" fill-rule="nonzero">
                    <rect id="矩形" x="0" y="0" width="144" height="32"></rect>
                </g>
                <g id="编组-3" fill-rule="nonzero">
                    <g id="编组">
                        <rect id="矩形" fill="#FFFFFF" x="0" y="0" width="144" height="32"></rect>
                        <path d="M144,32 L0,32 L0,0 L144,0 L144,32 Z M0.947368421,31.372549 L143.052632,31.372549 L143.052632,0.62745098 L0.947368421,0.62745098 L0.947368421,31.372549 Z" id="形状" fill="#E5E5E5"></path>
                    </g>
                </g>
                <text id="云防火墙CFW" font-family="PingFangSC-Semibold, PingFang SC" font-size="12" font-weight="500" fill="#888888">
                    <tspan x="47" y="20">云防火墙CFW</tspan>
                </text>
                <g id="蓝色线条-24x24" transform="translate(23.000000, 6.000000)" fill="#00A4FF" fill-rule="nonzero">
                    <path d="M9.16666667,19.5583333 L8.74166667,19.3166667 C3.34080643,16.1806974 0.0121893361,10.4119406 2.96059473e-15,4.16666667 C2.96059473e-15,3.975 2.96059473e-15,3.775 2.96059473e-15,3.58333333 L2.96059473e-15,3.18333333 L0.316666667,2.94166667 C5.54367281,-0.979166728 12.7313272,-0.979166728 17.9583333,2.94166667 L18.275,3.18333333 L18.275,3.58333333 C18.275,3.78333333 18.275,3.975 18.275,4.175 C18.2702282,10.4070462 14.9623962,16.1695878 9.58333333,19.3166667 L9.16666667,19.5583333 Z M1.66666667,4.04166667 L1.66666667,4.16666667 C1.67113591,9.64567719 4.50792063,14.7329778 9.16666667,17.6166667 C13.8194361,14.7272718 16.6542018,9.643592 16.6666667,4.16666667 L16.6666667,4.04166667 C12.166142,0.881048676 6.16719136,0.881048676 1.66666667,4.04166667 Z" id="形状"></path>
                    <path d="M4.16666667,9.3 L4.16666667,7.125 C3.16430929,7.51671702 2.19222518,7.98186901 1.25833333,8.51666667 L0.416666667,7.08333333 C1.79422362,6.28688355 3.25238227,5.63881304 4.76666667,5.15 L5.83333333,4.83333333 L5.83333333,7.425 L6.66666667,7.33333333 L6.66666667,4.83333333 L7.38333333,4.73333333 L7.85,4.65 C8.28810684,4.55201919 8.73458835,4.496209 9.18333333,4.48333333 C9.60487339,4.49893409 10.0237158,4.55757202 10.4333333,4.65833333 C10.625,4.65833333 10.8,4.74166667 10.9666667,4.76666667 L11.6833333,4.86666667 L11.6833333,7.36666667 L12.5166667,7.45 L12.5166667,4.83333333 L13.5833333,5.15 C15.0744886,5.65604981 16.5009533,6.33571825 17.8333333,7.175 L17,8.6 C16.0880205,8.05324679 15.1415963,7.5661167 14.1666667,7.14166667 L14.1666667,9.28333333 L10,8.88333333 L10,6.30833333 C9.72686095,6.24010237 9.44780379,6.1982438 9.16666667,6.18333333 C8.88684809,6.19661389 8.60834962,6.2300337 8.33333333,6.28333333 L8.33333333,8.78333333 L4.16666667,9.3 Z" id="路径"></path>
                </g>
            </g>
            <path d="M167.4215,402.5 L174.5,398.456 L181.5785,402.5 L174.5,406.544 L167.4215,402.5 Z M174.5,395 L164,401 L164,413 L168.5405,415.595 C168.6125,414.5285 168.944,413.531 169.5035,412.6895 L167,411.2585 L167,405.7145 L174.5,410 L182,405.7145 L182,411.2585 L176.876,414.188 C176.327,413.4695 175.472,413 174.5,413 C172.8425,413 171.5,414.344 171.5,416 C171.5,417.656 172.8425,419 174.5,419 C175.5935,419 176.5415,418.4075 177.065,417.533 L185,413 L185,401 L174.5,395 Z" id="Fill-1" fill="#888888"></path>
            <text id="云服务器-CVM" font-family="PingFangSC-Semibold, PingFang SC" font-size="12" font-weight="500" fill="#888888">
                <tspan x="151" y="437">云服务器</tspan>
                <tspan x="161.236" y="454">CVM</tspan>
            </text>
            <text id="负载均衡-CLB" font-family="PingFangSC-Semibold, PingFang SC" font-size="12" font-weight="500" fill="#888888">
                <tspan x="233" y="437">负载均衡</tspan>
                <tspan x="244.916" y="454">CLB</tspan>
            </text>
            <text id="NAT网关" font-family="PingFangSC-Semibold, PingFang SC" font-size="12" font-weight="500" fill="#888888">
                <tspan x="316.844" y="437">NAT网关</tspan>
            </text>
            <text id="VPN网关" font-family="PingFangSC-Semibold, PingFang SC" font-size="12" font-weight="500" fill="#888888">
                <tspan x="399.724" y="437">VPN网关</tspan>
            </text>
            <text id="其他类型" font-family="PingFangSC-Semibold, PingFang SC" font-size="12" font-weight="500" fill="#888888">
                <tspan x="482" y="437">其他类型</tspan>
            </text>
            <path d="M245,396.714286 L245,417.285714 L258.714286,417.285714 L258.714286,413.857143 L248.428571,413.857143 L248.428571,408.714286 L258.714286,408.714286 L258.714286,405.285714 L248.428571,405.285714 L248.428571,400.142857 L258.714286,400.142857 L258.714286,396.714286 L245,396.714286 Z M265.571429,412.142857 C263.678857,412.142857 262.142857,413.678857 262.142857,415.571429 C262.142857,417.464 263.678857,419 265.571429,419 C267.464,419 269,417.464 269,415.571429 C269,413.678857 267.464,412.142857 265.571429,412.142857 L265.571429,412.142857 Z M265.571429,403.571429 C263.678857,403.571429 262.142857,405.107429 262.142857,407 C262.142857,408.892571 263.678857,410.428571 265.571429,410.428571 C267.464,410.428571 269,408.892571 269,407 C269,405.107429 267.464,403.571429 265.571429,403.571429 L265.571429,403.571429 Z M262.142857,398.428571 C262.142857,396.536 263.678857,395 265.571429,395 C267.464,395 269,396.536 269,398.428571 C269,400.321143 267.464,401.857143 265.571429,401.857143 C263.678857,401.857143 262.142857,400.321143 262.142857,398.428571 L262.142857,398.428571 Z" id="Fill-1" fill="#888888"></path>
            <path d="M346.142857,395 L346.142857,398.430286 L335.857143,398.430286 L335.857143,395 L332.428571,395 L332.428571,398.430286 L329,398.430286 L329,419 L353.001714,419 L353.001714,398.430286 L349.571429,398.430286 L349.571429,395 L346.142857,395 Z M332.428571,408.716 L349.571429,408.716 L349.571429,401.858857 L332.428571,401.858857 L332.428571,408.716 Z M332.428571,415.573143 L349.571429,415.573143 L349.571429,412.144571 L332.428571,412.144571 L332.428571,415.573143 Z" id="Fill-1" fill="#888888"></path>
            <path d="M423.5,395 L413,401.0015 L413,404 L418.9985,407.4275 L418.9985,403.973 L416.4215,402.5 L423.5,398.456 L430.9985,402.7415 L430.9985,404.831 L434,406.5455 L434,401.0015 L423.5,395 Z M422,410 L425,410 L425,404 L422,404 L422,410 Z M428,410.027 L430.5785,411.5 L423.5,415.544 L416,411.26 L416,409.169 L413,407.456 L413,413.0015 L423.5,419 L434,413.0015 L434,410 L428,406.5725 L428,410.027 Z" id="Fill-1" fill="#888888"></path>
            <g id="更多" transform="translate(494.000000, 395.000000)" fill-rule="nonzero">
                <rect id="矩形" fill="#000000" opacity="0" x="0" y="0" width="24" height="24"></rect>
                <path d="M24,12 C24,5.37272728 18.6272727,0 12,0 C5.37272728,0 0,5.37272728 0,12 C0,18.6272727 5.37272728,24 12,24 C18.6272727,24 24,18.6272727 24,12 Z M18.5454545,9.81818182 C19.7498182,9.81818182 20.7272727,10.7956364 20.7272727,12 C20.7272727,13.2043636 19.7498182,14.1818182 18.5454545,14.1818182 C17.34,14.1818182 16.3636364,13.2054545 16.3636364,12 C16.3636364,10.7945455 17.34,9.81818182 18.5454545,9.81818182 Z M5.45454546,14.1818182 C4.24909092,14.1818182 3.27272728,13.2054545 3.27272728,12 C3.27272728,10.7945455 4.24909092,9.81818182 5.45454546,9.81818182 C6.6589091,9.81818182 7.63636364,10.7956364 7.63636364,12 C7.63636364,13.2043636 6.6589091,14.1818182 5.45454546,14.1818182 Z M9.81818182,12 C9.81818182,10.7945455 10.7945455,9.81818182 12,9.81818182 C13.2043636,9.81818182 14.1818182,10.7956364 14.1818182,12 C14.1818182,13.2043636 13.2043636,14.1818182 12,14.1818182 C10.7945455,14.1818182 9.81818182,13.2054545 9.81818182,12 Z" id="形状" fill="#888888"></path>
            </g>
            <text id="关联资产" font-family="PingFangSC-Semibold, PingFang SC" font-size="12" font-weight="500" fill="#888888">
                <tspan x="358" y="364">关联资产</tspan>
            </text>
            <use id="矩形" stroke="#BBBBBB" mask="url(#mask-2)" stroke-width="2" stroke-dasharray="2" xlink:href="#path-1"></use>
            <use id="矩形" stroke="#BBBBBB" mask="url(#mask-4)" stroke-width="2" stroke-dasharray="2" xlink:href="#path-3"></use>
            <path id="直线" d="M340.5,133 L345,142 L341,142 L341,277 L345,277 L340.5,286 L336,277 L340,277 L340,142 L336,142 L340.5,133 Z" fill="#979797" fill-rule="nonzero"></path>
            <text id="弹性公网IP" font-family="PingFangSC-Semibold, PingFang SC" font-size="12" font-weight="500" fill="#888888">
                <tspan x="358.528" y="311">弹性公网IP</tspan>
            </text>
            <path d="M331.428571,315.571429 L350.285714,315.571429 L350.285714,298.428571 L331.428571,298.428571 L331.428571,315.571429 Z M328,319 L353.714286,319 L353.714286,295 L328,295 L328,319 Z M344.285714,301.857143 C346.653143,301.857143 348.571429,303.775429 348.571429,306.142857 C348.571429,308.510286 346.653143,310.428571 344.285714,310.428571 L341.714286,310.428571 L341.714286,312.142857 L338.285714,312.142857 L338.285714,301.857143 L344.285714,301.857143 Z M336.571429,301.857143 L336.571429,312.142857 L333.142857,312.142857 L333.142857,301.857143 L336.571429,301.857143 Z M344.285714,305.285714 L341.714286,305.285714 L341.714286,307 L344.285714,307 C344.757143,307 345.142857,306.616 345.142857,306.142857 C345.142857,305.669714 344.757143,305.285714 344.285714,305.285714 Z" id="Combined-Shape" fill="#888888"></path>
            <path id="直线" d="M336,369 L336,368 L340,368 L340,327 L336,327 L336,326 L345,326 L345,327 L341,327 L341,368 L345,368 L345,369 L336,369 Z" fill="#979797" fill-rule="nonzero"></path>
            <g id="互联网" transform="translate(329.000000, 99.000000)" fill-rule="nonzero">
                <rect id="矩形" fill="#000000" opacity="0" x="0" y="0" width="24" height="24"></rect>
                <path d="M20.5903128,3.62104597 C20.2624296,3.28500713 19.9152176,2.96838689 19.550447,2.67279956 C17.4883641,1.00145021 14.8611719,0 12.0000234,0 C9.13887495,0 6.51170621,1.00145021 4.44962333,2.67279956 C4.08486401,2.96840005 3.73765274,3.28501961 3.40975756,3.62104597 C1.29997871,5.78369843 0,8.74004846 0,12.0000117 C0,15.259975 1.29995527,18.2163016 3.40973412,20.378954 C3.73762356,20.7149937 4.08483517,21.0316213 4.4495999,21.3272239 C6.51168278,22.9985498 9.13887495,24 12,24 C14.8611485,24 17.4883407,22.9985263 19.5504001,21.3272004 C19.9151754,21.0316185 20.2623877,20.714998 20.5902659,20.378954 C22.7000447,18.2163016 24,15.259975 24,12.0000117 C24,8.74004846 22.7000682,5.78369843 20.5903128,3.62104597 L20.5903128,3.62104597 Z M7.82556012,2.26027088 C7.33945972,2.84895804 6.89925058,3.5377246 6.51552658,4.30866407 C6.16933895,4.09888114 5.8355524,3.86928523 5.51583322,3.62102253 C6.22386634,3.07154681 6.99677535,2.61593946 7.82556012,2.26027088 Z M4.44962333,4.56931582 C4.92330809,4.95327374 5.42550499,5.30065466 5.95187044,5.60845401 C5.32636188,7.27455329 4.93825502,9.21714826 4.86705092,11.3023857 L1.42879297,11.3023857 C1.50512995,10.1181441 1.77637585,8.96877792 2.23819466,7.87688125 C2.76076431,6.64142807 3.50463385,5.52911707 4.44962333,4.56931582 Z M4.4495999,19.4306842 C3.50463385,18.4708829 2.76074087,17.3585719 2.23819466,16.1231422 C1.77637585,15.0312221 1.50515339,13.8818325 1.42879297,12.6975909 L4.86705092,12.6975909 C4.93823158,14.7828283 5.32636188,16.7254233 5.95187044,18.3915225 C5.42549702,18.6993298 4.92329234,19.0467185 4.4495999,19.4306842 L4.4495999,19.4306842 Z M5.51580979,20.378954 C5.83553859,20.1307045 6.16932437,19.9011091 6.51550314,19.6913125 C6.8992037,20.462252 7.33943628,21.1510185 7.82553668,21.7397057 C6.99677535,21.3840605 6.22386634,20.9284532 5.51580979,20.378954 L5.51580979,20.378954 Z M11.3024202,22.5094264 C10.8727815,22.4053391 10.4480413,22.2052038 10.0332622,21.9105438 C9.35274506,21.4271392 8.70363462,20.685497 8.15603338,19.7658447 C8.01850025,19.5348652 7.88802191,19.2940418 7.76424678,19.0445465 C7.80170866,19.0281817 7.83926448,19.0120327 7.87691238,18.9961005 C8.96881012,18.5342822 10.1181774,18.26306 11.3024202,18.1866996 L11.3024202,22.5094264 L11.3024202,22.5094264 Z M11.3024202,16.7780646 C9.8559785,16.8610109 8.47813935,17.1999449 7.2136455,17.7505457 C7.0497917,17.2977743 6.9049694,16.8229245 6.78018645,16.3274963 C6.48936997,15.1727629 6.32014891,13.95456 6.27439828,12.6975674 L11.3024202,12.6975674 L11.3024202,16.7780646 L11.3024202,16.7780646 Z M11.3024202,11.3023857 L6.27442172,11.3023857 C6.32014891,10.0454166 6.48936997,8.82721363 6.78018645,7.67248022 C6.90494597,7.17705205 7.04976826,6.70220227 7.2136455,6.24938403 C8.47813935,6.8000082 9.8559785,7.13894219 11.3024202,7.22188856 L11.3024202,11.3023857 L11.3024202,11.3023857 Z M11.3024202,5.81330036 C10.1181774,5.73696346 8.96881012,5.46571783 7.87691238,5.00389946 C7.8392478,4.98796176 7.80170041,4.97178968 7.76424678,4.95545354 C7.88802191,4.70595818 8.01850025,4.46515825 8.15603338,4.23417875 C8.70363462,3.31450302 9.35276849,2.57288423 10.0332622,2.08947965 C10.4480413,1.79481966 10.8727815,1.59470775 11.3024202,1.49062049 L11.3024202,5.81330036 L11.3024202,5.81330036 Z M21.7618288,7.87688125 C22.223671,8.96877792 22.4948935,10.1181441 22.5712539,11.3023857 L19.132996,11.3023857 C19.0617919,9.21714826 18.6736616,7.27455329 18.0481764,5.60845401 C18.5745499,5.30064677 19.0767545,4.95325805 19.550447,4.56929238 C20.495413,5.52911707 21.2392826,6.64142807 21.7618288,7.87688125 L21.7618288,7.87688125 Z M18.4842371,3.62104597 C18.1644963,3.86929029 17.8307031,4.09888543 17.4845203,4.30868751 C17.1008197,3.53774804 16.6605872,2.84895804 16.1744633,2.26027088 C17.0032715,2.61591602 17.7761571,3.07152337 18.4842371,3.62104597 L18.4842371,3.62104597 Z M12.6976267,1.49059705 C13.127242,1.59466087 13.5520056,1.79479622 13.9667847,2.08947965 C14.6473018,2.57288423 15.2964123,3.31452645 15.8440135,4.23417875 C15.9815701,4.46515825 16.1120484,4.70598162 16.2358235,4.95547697 C16.1983635,4.97183823 16.1608076,4.98797934 16.1231579,5.00389946 C15.0312368,5.46574126 13.8818695,5.73696346 12.6976267,5.81330036 L12.6976267,1.49059705 L12.6976267,1.49059705 Z M12.6976267,7.221912 C14.1440449,7.13896563 15.5219075,6.80003164 16.7864248,6.2494309 C16.9502552,6.70222571 17.0951009,7.17707549 17.2198839,7.67250365 C17.5106535,8.82723706 17.679898,10.0454166 17.7256252,11.3024091 L12.6976267,11.3024091 L12.6976267,7.221912 Z M12.6976267,12.6975909 L17.7256252,12.6975909 C17.679898,13.9545834 17.5106535,15.1727864 17.2198839,16.3275198 C17.0951009,16.8229479 16.9502552,17.2977509 16.7864248,17.7505691 C15.5219075,17.1999684 14.1440449,16.8610344 12.6976267,16.778088 L12.6976267,12.6975909 Z M13.9667847,21.9105438 C13.5520056,22.2052038 13.127242,22.4053391 12.6976267,22.5094264 L12.6976267,18.1866762 C13.8818695,18.2630131 15.0312368,18.5342353 16.1231579,18.9960771 C16.1608016,19.0120114 16.1983573,19.0281525 16.2358235,19.0444996 C16.1120484,19.2940184 15.9815701,19.5348418 15.8440135,19.7658212 C15.2964357,20.685497 14.6473018,21.4271392 13.9667847,21.9105438 Z M16.1744633,21.7397526 C16.6605637,21.151042 17.1007963,20.462252 17.4845203,19.6913125 C17.8307191,19.9010897 18.1645138,20.1306858 18.4842371,20.378954 C17.7761571,20.9284532 17.0032715,21.384084 16.1744633,21.7397526 L16.1744633,21.7397526 Z M21.7618288,16.1231422 C21.2392826,17.3585719 20.495413,18.4708829 19.5504235,19.4306842 C19.0767351,19.0467131 18.57453,18.6993241 18.048153,18.3915225 C18.6736616,16.7253998 19.0617919,14.7828049 19.1329725,12.6975909 L22.5712305,12.6975909 C22.4948935,13.8818325 22.223671,15.0312221 21.7618288,16.1231422 Z" id="形状" fill="#888888"></path>
            </g>
            <text id="互联网" font-family="PingFangSC-Semibold, PingFang SC" font-size="12" font-weight="500" fill="#888888">
                <tspan x="360.5" y="115">互联网</tspan>
            </text>
            <text id="关闭防火墙" font-family="PingFangSC-Semibold, PingFang SC" font-size="12" font-weight="500" fill="#888888">
                <tspan x="626.25" y="455">关闭防火墙</tspan>
            </text>
            <g id="TencentCloud-logo" transform="translate(110.000000, 143.000000)">
                <rect id="矩形" fill="#FFFFFF" opacity="0" x="0" y="0" width="24" height="24"></rect>
                <path d="M20.7981189,17.123849 C20.3709449,17.5439012 19.6086964,18.0209195 18.357316,18.0630827 C17.7789315,18.0825426 17.1029215,18.084788 16.7938023,18.084788 L10.0705425,18.084788 C12.5166201,15.7247285 14.6505644,13.6664645 14.8927022,13.4328619 C15.1142432,13.219052 15.6130873,12.7450275 16.0432755,12.3602361 C16.9878809,11.5155578 17.8379589,11.3455743 18.4392845,11.3511462 C19.3815456,11.3597119 20.238238,11.7418421 20.8505318,12.3589055 C22.1609395,13.6891678 22.1297932,15.81471 20.7981189,17.123849 M22.4086871,10.8448549 C21.4040495,9.82719925 20.003803,9.18610199 18.4472386,9.18610199 C17.1016656,9.18576934 15.9431383,9.64665415 14.9314677,10.4646374 C14.49073,10.8214031 14.0283907,11.2483578 13.4462385,11.8097025 C13.2532483,11.9961521 9.43999617,15.6710889 6.93614706,18.0841227 C6.58759251,18.0828753 6.08673896,18.0778855 5.64265216,18.0630827 C4.39127182,18.0209195 3.62910702,17.5439012 3.2018493,17.123849 C1.87025872,15.81471 1.83911236,13.6891678 3.14952007,12.3589055 C3.76173022,11.7418421 4.61884119,11.3597119 5.56076737,11.3511462 C6.15112484,11.3488177 6.95247378,11.5191338 7.85756018,12.2646828 L7.85772764,12.2645996 C8.28992523,12.6204506 9.24943404,13.4582264 9.67049598,13.8353669 C9.69193003,13.8544942 9.71771788,13.8562406 9.74283591,13.8357827 L11.2283163,12.3962453 C11.2539367,12.371463 11.2524296,12.3380318 11.2270604,12.3153285 C10.5127873,11.6738986 9.50002827,10.7764124 8.89041364,10.3255902 C8.24990384,9.84956987 7.55940915,9.51093347 6.81114299,9.33238427 C6.81876212,9.33404751 6.82671617,9.33504546 6.83475394,9.33662554 C7.33912401,6.94463173 9.4682121,5.1679549 11.9998585,5.1679549 C14.108601,5.1679549 15.9583766,6.4310221 16.7925464,8.22117121 C16.8054403,8.24952951 16.8277116,8.25876051 16.850569,8.25244019 C17.4777663,8.08120926 18.2296327,7.98166413 18.9560462,8.03505425 C19.0266278,8.04029346 19.0541739,8.00045878 19.0313165,7.93650706 C18.0060822,5.06092517 15.2462804,3 11.9998585,3 C8.27611032,3 5.19027641,5.71981913 4.63140021,9.26252804 C4.63307474,9.26252804 4.63474928,9.26286069 4.63642381,9.26252804 C3.45035036,9.45987189 2.39430459,10.0314456 1.59128112,10.8448549 C-0.560915558,13.0296085 -0.527759757,16.5206737 1.67718478,18.6714972 C2.56242794,19.5349701 3.63505162,20.0047533 4.7790105,20.163593 L4.7786756,20.163593 C5.21782252,20.2257984 5.82174372,20.2442604 6.36069295,20.2475868 C6.86523048,20.2509133 16.492051,20.25 16.8950279,20.25 C17.7062566,20.25 18.2339865,20.2492501 18.8010679,20.2080016 C20.101261,20.1135294 21.3297839,19.6400871 22.3227834,18.6714972 C24.5277279,16.5206737 24.5609675,13.0296085 22.4086871,10.8448549" id="Fill-1" fill="#006EFF"></path>
            </g>
            <text id="腾讯云" font-family="PingFangSC-Semibold, PingFang SC" font-size="12" font-weight="500" fill="#000000">
                <tspan x="139" y="159">腾讯云</tspan>
            </text>
            <path id="直线" d="M352.700586,133.599561 L361.693984,138.112741 L358.486,140.51 L358.494184,140.521786 C361.646185,144.825058 363.869877,148.059297 365.168382,150.230333 C365.956702,151.548364 366.669028,152.882514 367.335421,154.271707 C367.583019,154.78786 367.828384,155.320807 368.111446,155.952581 C368.265436,156.296274 368.75678,157.40577 368.805185,157.514413 C370.811418,162.017292 372.64703,168.117419 374.315779,175.819067 L374.367,176.061 L378.306215,175.300807 L375.59483,184.990925 L369.469566,177.007746 L373.385,176.251 L373.338886,176.032813 C371.683403,168.392039 369.866437,162.353474 367.891747,157.92139 C367.842524,157.810914 367.351775,156.702759 367.198858,156.361461 C366.919069,155.736994 366.677161,155.211555 366.433792,154.704217 C365.780259,153.341832 365.082295,152.034584 364.310172,150.743632 C363.030961,148.604854 360.822056,145.392204 357.686579,141.111513 L357.685,141.11 L354.486081,143.502187 L352.700586,133.599561 Z" fill="#00A4FF" fill-rule="nonzero"></path>
            <path id="直线" d="M375.604773,232.011101 L378.118948,241.754248 L374.2,240.914 L374.143387,241.165589 C372.081009,250.141528 370.039778,257.032742 368.015887,261.845106 C366.05151,266.515957 362.833978,272.247349 358.362596,279.044402 L358.214,279.269 L361.520152,281.538272 L352.717062,286.412245 L354.099737,276.44539 L357.389,278.703 L357.526157,278.496338 C361.967021,271.745782 365.156563,266.064441 367.09409,261.457434 C369.092147,256.706498 371.118442,249.865391 373.169165,240.939989 L373.223,240.705 L369.31876,239.868329 L375.604773,232.011101 Z" fill="#00A4FF" fill-rule="nonzero"></path>
            <path id="直线" d="M604.086585,446.417499 L604.008,450.416 L612.511,450.583 L612.589852,446.58423 L621.499904,451.259802 L612.413415,455.582501 L612.491,451.583 L603.988,451.416 L603.910148,455.41577 L595.000096,450.740198 L604.086585,446.417499 Z" fill="#979797" fill-rule="nonzero"></path>
            <text id="关闭防火墙" font-family="PingFangSC-Semibold, PingFang SC" font-size="12" font-weight="500" fill="#888888">
                <tspan x="626.25" y="455">关闭防火墙</tspan>
            </text>
            <path id="直线" d="M604.086585,446.417499 L604.008,450.416 L612.511,450.583 L612.589852,446.58423 L621.499904,451.259802 L612.413415,455.582501 L612.491,451.583 L603.988,451.416 L603.910148,455.41577 L595.000096,450.740198 L604.086585,446.417499 Z" fill="#979797" fill-rule="nonzero"></path>
            <text id="开启防火墙" font-family="PingFangSC-Semibold, PingFang SC" font-size="12" font-weight="500" fill="#00A4FF">
                <tspan x="626.25" y="482">开启防火墙</tspan>
            </text>
            <path id="直线" d="M604.086585,473.417499 L604.008,477.416 L612.511,477.583 L612.589852,473.58423 L621.499904,478.259802 L612.413415,482.582501 L612.491,478.583 L603.988,478.416 L603.910148,482.41577 L595.000096,477.740198 L604.086585,473.417499 Z" fill="#00A4FF" fill-rule="nonzero"></path>
        </g>
    </g>
</svg>